# xmcd
#
# Track frame offsets: 
#        150
#        9112
#        24122
#        38007
#        49599
#        64240
#        77692
#        92477
#        106664
#        128161
#        146372
#        158703
#        174993
#        186986
#        201594
#        214995
#        229389
#
# Disc length: 3216 seconds
#
# Revision: 2
# Processed by: cddbd v1.5.2PL0 Copyright (c) Steve Scherf et al.
# Submitted via: ExactAudioCopy v0.99pb4
#
DISCID=d60c8e11
DTITLE=Various Artist - Absolutely Bluegrass
DYEAR=2007
DGENRE=country
TTITLE0=Jim Mills - Pick Along
TTITLE1=The Infamous Stringdusters - Starry Night
TTITLE2=Dolly Parton - I'm Gonna Sleep With One Eye Open
TTITLE3=Marty Stuart - Blue Railroad Train
TTITLE4=Ronnie Bowman - Left This Country Boy
TTITLE5=Sam Bush - Howlin' At The Moon
TTITLE6=Yonder Mountain String Band - Classic Situation
TTITLE7=Bryan Sutton - High Heel Shoe
TTITLE8=The Duhks - Dance Hall Girls
TTITLE9=Tim O'brien - When I Paint My Masterpiece
TTITLE10=Chris Thile - Wayside
TTITLE11=Nickel Creek - Tomorrow Is A Long Time
TTITLE12=Nashville Bluegrass Band - Rockin' Chair Money
TTITLE13=The Gibson Brothers - I got A Woman
TTITLE14=Doyle Lawson and Quicksilver - Back In My Baby's Arms Again
TTITLE15=Jerry Douglas - I Don't Believe You've Met My Baby
TTITLE16=Ricky Scaggs - I'll Stay Around
EXTD=
EXTT0=
EXTT1=
EXTT2=
EXTT3=
EXTT4=
EXTT5=
EXTT6=
EXTT7=
EXTT8=
EXTT9=
EXTT10=
EXTT11=
EXTT12=
EXTT13=
EXTT14=
EXTT15=
EXTT16=
PLAYORDER=
